<?xml version="1.0" encoding="utf-8"?>
<!-- Generator: Adobe Illustrator 16.0.0, SVG Export Plug-In . SVG Version: 6.00 Build 0)  -->
<!DOCTYPE svg PUBLIC "-//W3C//DTD SVG 1.1//EN" "http://www.w3.org/Graphics/SVG/1.1/DTD/svg11.dtd">
<svg version="1.1" id="Layer_1" xmlns="http://www.w3.org/2000/svg" xmlns:xlink="http://www.w3.org/1999/xlink" x="0px" y="0px"
	 width="205.473px" height="27.355px" viewBox="0 0 205.473 27.355" enable-background="new 0 0 205.473 27.355"
	 xml:space="preserve">
<g>
	<path d="M58.263,7.972c0.614,0.507,1.895,1.574,1.895,3.604c0,1.975-1.12,2.911-2.242,3.791c-0.348,0.346-0.747,0.721-0.747,1.309
		s0.399,0.907,0.692,1.148l0.963,0.745c1.175,0.988,2.242,1.896,2.242,3.74c0,2.51-2.43,5.045-7.021,5.045
		c-3.872,0-5.74-1.842-5.74-3.817c0-0.962,0.479-2.322,2.056-3.259c1.654-1.014,3.898-1.146,5.1-1.229
		c-0.374-0.48-0.802-0.986-0.802-1.814c0-0.453,0.135-0.721,0.268-1.041c-0.294,0.027-0.587,0.054-0.855,0.054
		c-2.829,0-4.432-2.109-4.432-4.19c0-1.229,0.562-2.592,1.709-3.579c1.521-1.255,3.337-1.469,4.78-1.469h5.499l-1.708,0.962H58.263z
		 M56.365,19.827C56.154,19.8,56.02,19.8,55.754,19.8c-0.241,0-1.685,0.055-2.806,0.43c-0.587,0.213-2.296,0.853-2.296,2.75
		c0,1.895,1.844,3.258,4.7,3.258c2.562,0,3.925-1.23,3.925-2.885C59.278,21.988,58.397,21.27,56.365,19.827 M57.141,14.754
		c0.614-0.614,0.667-1.468,0.667-1.948c0-1.924-1.148-4.913-3.363-4.913c-0.694,0-1.441,0.347-1.87,0.881
		c-0.453,0.561-0.587,1.281-0.587,1.976c0,1.789,1.042,4.753,3.338,4.753C55.992,15.502,56.713,15.182,57.141,14.754"/>
</g>
<g>
	<path d="M41.454,19.4c-4.238,0-6.505-3.305-6.505-6.292c0-3.492,2.853-6.477,6.905-6.477c3.917,0,6.37,3.065,6.37,6.291
		C48.225,16.066,45.8,19.4,41.454,19.4 M44.784,17.241c0.642-0.854,0.803-1.919,0.803-2.96c0-2.345-1.12-6.823-4.427-6.823
		c-0.88,0-1.759,0.348-2.397,0.907c-1.04,0.932-1.229,2.105-1.229,3.252c0,2.639,1.308,6.982,4.533,6.982
		C43.108,18.6,44.173,18.094,44.784,17.241"/>
</g>
<g>
	<path d="M27.006,19.4c-4.239,0-6.505-3.305-6.505-6.292c0-3.492,2.853-6.477,6.904-6.477c3.918,0,6.371,3.065,6.371,6.291
		C33.777,16.066,31.351,19.4,27.006,19.4 M30.338,17.241c0.64-0.854,0.8-1.919,0.8-2.96c0-2.345-1.119-6.823-4.425-6.823
		c-0.879,0-1.759,0.348-2.399,0.907c-1.04,0.932-1.226,2.105-1.226,3.252c0,2.639,1.306,6.982,4.532,6.982
		C28.659,18.6,29.726,18.094,30.338,17.241"/>
</g>
<g>
	<path d="M18.465,18.98l-3.833,0.887c-1.556,0.24-2.948,0.455-4.421,0.455C2.813,20.322,0,14.881,0,10.62
		C0,5.421,3.992,0.598,10.827,0.598c1.447,0,2.841,0.214,4.1,0.562c2.01,0.563,2.948,1.26,3.538,1.662L16.24,4.939l-0.938,0.214
		l0.67-1.073c-0.91-0.883-2.573-2.518-5.735-2.518c-4.233,0-7.424,3.217-7.424,7.906c0,5.037,3.646,9.78,9.487,9.78
		c1.717,0,2.6-0.347,3.404-0.67v-4.312l-4.047,0.213l2.144-1.151h5.682l-0.695,0.669c-0.189,0.161-0.216,0.216-0.27,0.429
		c-0.028,0.242-0.053,1.02-0.053,1.287V18.98z"/>
</g>
<g>
	<path d="M66.734,18.21c-0.886-0.081-1.07-0.241-1.07-1.286v-0.296V1.754c0.005-0.058,0.009-0.116,0.015-0.172
		C65.784,0.644,66.054,0.483,66.885,0h-3.833l-2.011,0.965h2.049v0.013l-0.001-0.01v15.66v0.887c0,0.534-0.107,0.614-0.725,1.418
		h4.744l0.992-0.589C67.645,18.291,67.19,18.264,66.734,18.21"/>
</g>
<g>
	<path d="M77.639,18.457c-0.292,0.16-0.585,0.349-0.877,0.48c-0.879,0.396-1.784,0.504-2.583,0.504c-0.851,0-2.182-0.053-3.54-1.037
		c-1.888-1.331-2.714-3.62-2.714-5.616c0-4.125,3.354-6.147,6.095-6.147c0.958,0,1.944,0.238,2.742,0.745
		c1.33,0.877,1.676,2.021,1.862,2.634l-6.254,2.528l-2.051,0.16c0.665,3.38,2.955,5.35,5.483,5.35c1.357,0,2.342-0.479,3.247-0.932
		L77.639,18.457z M75.138,10.524c0.505-0.187,0.771-0.347,0.771-0.718c0-1.064-1.196-2.289-2.634-2.289
		c-1.066,0-3.061,0.824-3.061,3.699c0,0.452,0.052,0.932,0.08,1.41L75.138,10.524z"/>
</g>
<g>
	<path d="M92.738,18.397h-1.063v-14.1h-4.902V3.306h10.869v0.991h-4.903V18.397z"/>
	<path d="M104.611,18.397l-0.258-1.775h-0.083c-0.564,0.723-1.145,1.233-1.739,1.533c-0.596,0.299-1.299,0.448-2.111,0.448
		c-1.101,0-1.957-0.281-2.569-0.846c-0.613-0.564-0.919-1.346-0.919-2.344c0-1.094,0.456-1.944,1.367-2.549
		c0.912-0.605,2.231-0.925,3.959-0.96l2.137-0.062v-0.743c0-1.066-0.217-1.872-0.65-2.415s-1.132-0.815-2.096-0.815
		c-1.039,0-2.116,0.289-3.23,0.867l-0.382-0.888c1.231-0.578,2.449-0.867,3.654-0.867c1.231,0,2.151,0.32,2.761,0.96
		c0.609,0.64,0.913,1.638,0.913,2.993v7.463H104.611z M100.482,17.675c1.197,0,2.142-0.342,2.833-1.027
		c0.691-0.685,1.038-1.636,1.038-2.854v-1.104l-1.962,0.083c-1.575,0.076-2.699,0.322-3.37,0.738
		c-0.671,0.417-1.006,1.065-1.006,1.946c0,0.701,0.215,1.247,0.645,1.636C99.091,17.48,99.698,17.675,100.482,17.675z"/>
	<path d="M117.497,7.177v0.712l-2.322,0.145c0.619,0.771,0.929,1.617,0.929,2.539c0,1.081-0.359,1.956-1.079,2.627
		c-0.719,0.671-1.684,1.007-2.895,1.007c-0.51,0-0.867-0.021-1.074-0.062c-0.406,0.212-0.716,0.464-0.929,0.753
		s-0.32,0.595-0.32,0.919c0,0.357,0.136,0.619,0.408,0.784c0.271,0.165,0.728,0.248,1.367,0.248h1.962
		c1.218,0,2.15,0.246,2.797,0.737c0.646,0.492,0.971,1.22,0.971,2.184c0,1.184-0.48,2.097-1.44,2.74s-2.327,0.965-4.103,0.965
		c-1.411,0-2.504-0.271-3.277-0.815c-0.774-0.543-1.161-1.3-1.161-2.271c0-0.771,0.238-1.411,0.717-1.92s1.127-0.856,1.946-1.043
		c-0.338-0.145-0.607-0.349-0.811-0.613c-0.203-0.266-0.305-0.569-0.305-0.914c0-0.75,0.479-1.41,1.435-1.982
		c-0.653-0.268-1.163-0.689-1.527-1.264c-0.365-0.575-0.547-1.233-0.547-1.977c0-1.122,0.355-2.021,1.068-2.699
		c0.712-0.678,1.674-1.017,2.885-1.017c0.736,0,1.308,0.072,1.714,0.217H117.497z M108.413,20.297c0,1.541,1.146,2.312,3.438,2.312
		c2.945,0,4.418-0.938,4.418-2.817c0-0.675-0.23-1.163-0.691-1.466s-1.208-0.454-2.24-0.454H111.5
		C109.442,17.871,108.413,18.679,108.413,20.297z M109.27,10.677c0,0.867,0.263,1.54,0.789,2.018
		c0.526,0.479,1.23,0.718,2.111,0.718c0.936,0,1.653-0.238,2.152-0.712c0.498-0.475,0.748-1.163,0.748-2.064
		c0-0.957-0.257-1.674-0.769-2.152c-0.513-0.478-1.23-0.717-2.152-0.717c-0.895,0-1.599,0.256-2.111,0.769
		S109.27,9.761,109.27,10.677z"/>
	<path d="M132.184,18.397l-5.625-13.935h-0.083c0.056,0.853,0.083,1.727,0.083,2.622v11.313h-1.012V3.306h1.631l5.347,13.274h0.062
		l5.347-13.274h1.589v15.091h-1.062V6.96c0-0.798,0.041-1.624,0.124-2.477h-0.083l-5.646,13.914H132.184z"/>
	<path d="M150.031,18.397l-0.258-1.775h-0.083c-0.564,0.723-1.145,1.233-1.739,1.533c-0.596,0.299-1.299,0.448-2.111,0.448
		c-1.101,0-1.957-0.281-2.569-0.846c-0.613-0.564-0.919-1.346-0.919-2.344c0-1.094,0.456-1.944,1.367-2.549
		c0.912-0.605,2.231-0.925,3.959-0.96l2.137-0.062v-0.743c0-1.066-0.217-1.872-0.65-2.415s-1.132-0.815-2.096-0.815
		c-1.039,0-2.116,0.289-3.23,0.867l-0.382-0.888c1.231-0.578,2.449-0.867,3.654-0.867c1.231,0,2.151,0.32,2.761,0.96
		c0.609,0.64,0.913,1.638,0.913,2.993v7.463H150.031z M145.902,17.675c1.197,0,2.142-0.342,2.833-1.027
		c0.691-0.685,1.038-1.636,1.038-2.854v-1.104l-1.962,0.083c-1.575,0.076-2.699,0.322-3.37,0.738
		c-0.671,0.417-1.006,1.065-1.006,1.946c0,0.701,0.215,1.247,0.645,1.636C144.51,17.48,145.118,17.675,145.902,17.675z"/>
	<path d="M162.043,18.397V11.12c0-1.129-0.238-1.949-0.713-2.462s-1.211-0.769-2.209-0.769c-1.342,0-2.324,0.339-2.946,1.017
		c-0.623,0.678-0.935,1.777-0.935,3.298v6.193h-1.021V7.177h0.867l0.195,1.538h0.062c0.729-1.17,2.026-1.755,3.892-1.755
		c2.546,0,3.818,1.366,3.818,4.098v7.339H162.043z"/>
	<path d="M173.276,18.397l-0.258-1.775h-0.083c-0.564,0.723-1.145,1.233-1.739,1.533c-0.596,0.299-1.299,0.448-2.111,0.448
		c-1.101,0-1.957-0.281-2.569-0.846c-0.613-0.564-0.919-1.346-0.919-2.344c0-1.094,0.456-1.944,1.367-2.549
		c0.912-0.605,2.231-0.925,3.959-0.96l2.137-0.062v-0.743c0-1.066-0.217-1.872-0.65-2.415s-1.132-0.815-2.096-0.815
		c-1.039,0-2.116,0.289-3.23,0.867l-0.382-0.888c1.231-0.578,2.449-0.867,3.654-0.867c1.231,0,2.151,0.32,2.761,0.96
		c0.609,0.64,0.913,1.638,0.913,2.993v7.463H173.276z M169.147,17.675c1.197,0,2.142-0.342,2.833-1.027
		c0.691-0.685,1.038-1.636,1.038-2.854v-1.104l-1.962,0.083c-1.575,0.076-2.699,0.322-3.37,0.738
		c-0.671,0.417-1.006,1.065-1.006,1.946c0,0.701,0.215,1.247,0.645,1.636C167.756,17.48,168.363,17.675,169.147,17.675z"/>
	<path d="M186.162,7.177v0.712l-2.322,0.145c0.619,0.771,0.929,1.617,0.929,2.539c0,1.081-0.359,1.956-1.079,2.627
		c-0.719,0.671-1.684,1.007-2.895,1.007c-0.51,0-0.867-0.021-1.074-0.062c-0.406,0.212-0.716,0.464-0.929,0.753
		s-0.32,0.595-0.32,0.919c0,0.357,0.136,0.619,0.408,0.784c0.271,0.165,0.728,0.248,1.367,0.248h1.962
		c1.218,0,2.15,0.246,2.797,0.737c0.646,0.492,0.971,1.22,0.971,2.184c0,1.184-0.48,2.097-1.44,2.74s-2.327,0.965-4.103,0.965
		c-1.411,0-2.504-0.271-3.277-0.815c-0.774-0.543-1.161-1.3-1.161-2.271c0-0.771,0.238-1.411,0.717-1.92s1.127-0.856,1.946-1.043
		c-0.338-0.145-0.607-0.349-0.811-0.613c-0.203-0.266-0.305-0.569-0.305-0.914c0-0.75,0.479-1.41,1.435-1.982
		c-0.653-0.268-1.163-0.689-1.527-1.264c-0.365-0.575-0.547-1.233-0.547-1.977c0-1.122,0.355-2.021,1.068-2.699
		c0.712-0.678,1.674-1.017,2.885-1.017c0.736,0,1.308,0.072,1.714,0.217H186.162z M177.078,20.297c0,1.541,1.146,2.312,3.438,2.312
		c2.945,0,4.418-0.938,4.418-2.817c0-0.675-0.23-1.163-0.691-1.466s-1.208-0.454-2.24-0.454h-1.837
		C178.107,17.871,177.078,18.679,177.078,20.297z M177.935,10.677c0,0.867,0.263,1.54,0.789,2.018
		c0.526,0.479,1.23,0.718,2.111,0.718c0.936,0,1.653-0.238,2.152-0.712c0.498-0.475,0.748-1.163,0.748-2.064
		c0-0.957-0.257-1.674-0.769-2.152c-0.513-0.478-1.23-0.717-2.152-0.717c-0.895,0-1.599,0.256-2.111,0.769
		S177.935,9.761,177.935,10.677z"/>
	<path d="M192.568,18.603c-1.631,0-2.902-0.502-3.814-1.507c-0.911-1.005-1.367-2.411-1.367-4.222c0-1.789,0.44-3.222,1.321-4.299
		c0.881-1.077,2.067-1.616,3.561-1.616c1.321,0,2.364,0.461,3.128,1.383c0.764,0.922,1.146,2.175,1.146,3.757v0.826h-8.082
		c0.014,1.542,0.373,2.719,1.079,3.53c0.705,0.812,1.715,1.218,3.029,1.218c0.64,0,1.202-0.045,1.688-0.134
		c0.485-0.09,1.1-0.282,1.843-0.578v0.929c-0.634,0.275-1.219,0.463-1.755,0.562C193.806,18.553,193.215,18.603,192.568,18.603z
		 M192.268,7.869c-1.08,0-1.947,0.356-2.601,1.068c-0.654,0.712-1.036,1.739-1.146,3.081h6.937c0-1.301-0.282-2.317-0.846-3.05
		C194.048,8.235,193.266,7.869,192.268,7.869z"/>
	<path d="M203.835,6.96c0.475,0,0.983,0.048,1.527,0.145l-0.196,0.981c-0.468-0.117-0.953-0.176-1.455-0.176
		c-0.957,0-1.741,0.406-2.354,1.218s-0.919,1.837-0.919,3.076v6.193h-1.021V7.177h0.867l0.103,2.023h0.072
		c0.461-0.826,0.953-1.406,1.477-1.739C202.458,7.127,203.092,6.96,203.835,6.96z"/>
</g>
</svg>
